<svg width="20" height="20" viewBox="0 0 20 20" fill="none" xmlns="http://www.w3.org/2000/svg">
<path fill-rule="evenodd" clip-rule="evenodd" d="M13.8219 1.59375C13.51 1.58326 13.1836 1.63763 12.8563 1.74375C12.2017 1.95597 11.5157 2.36955 10.8118 2.94218C10.5359 3.1666 10.2575 3.42313 9.97817 3.69531C9.70501 3.43004 9.43234 3.1804 9.16255 2.96093C8.45915 2.38876 7.77505 1.97502 7.12192 1.76328C6.4688 1.55153 5.81894 1.54497 5.28521 1.85312C4.75147 2.16127 4.4323 2.72694 4.28911 3.39843C4.14593 4.06993 4.1617 4.86959 4.30552 5.76484C4.35547 6.0758 4.42672 6.40203 4.50786 6.73437C4.20289 6.8268 3.90672 6.92398 3.63208 7.03125C2.80324 7.35497 2.11743 7.74226 1.61802 8.20312C1.11861 8.66398 0.796143 9.22332 0.796143 9.8375C0.796143 10.4517 1.11861 11.0102 1.61802 11.4711C2.11743 11.932 2.80324 12.32 3.63208 12.6437C3.92575 12.7584 4.2437 12.8617 4.57192 12.9594C4.45386 13.4005 4.35821 13.8286 4.29302 14.2344C4.14908 15.1303 4.13388 15.9301 4.27739 16.6031C4.4209 17.2761 4.74024 17.845 5.27661 18.1547C5.81298 18.4644 6.46575 18.4568 7.12036 18.2445C7.77497 18.0323 8.46015 17.6195 9.16411 17.0469C9.43745 16.8245 9.71395 16.5709 9.99067 16.3016C10.2688 16.5725 10.5465 16.8273 10.8211 17.0508C11.5245 17.623 12.2094 18.0359 12.8625 18.2477C13.5157 18.4594 14.1655 18.466 14.6993 18.1578C15.233 17.8497 15.5514 17.284 15.6946 16.6125C15.8378 15.941 15.822 15.1421 15.6782 14.2469C15.6128 13.84 15.5171 13.4105 15.3985 12.968C15.7376 12.8679 16.0655 12.7619 16.368 12.6437C17.1969 12.32 17.8827 11.932 18.3821 11.4711C18.8815 11.0102 19.204 10.4517 19.204 9.8375C19.204 9.22332 18.8815 8.66398 18.3821 8.20312C17.8827 7.74226 17.1969 7.35497 16.368 7.03125C16.0894 6.92244 15.7887 6.82399 15.479 6.73047C15.5608 6.39609 15.6334 6.06752 15.6836 5.75468C15.8276 4.85872 15.8428 4.05817 15.6993 3.38515C15.5558 2.71213 15.2356 2.14405 14.6993 1.83437C14.4311 1.67953 14.1338 1.60423 13.8219 1.59375ZM13.7852 2.40781C13.9809 2.41316 14.1479 2.45973 14.2907 2.54218C14.5763 2.70709 14.7874 3.02803 14.9 3.55625C15.0127 4.08446 15.0088 4.79813 14.8758 5.62578C14.8303 5.90915 14.7642 6.20947 14.6891 6.51718C13.8709 6.32027 12.9743 6.17416 12.0188 6.08828C11.5391 5.42373 11.0462 4.81831 10.5493 4.28125C10.8121 4.02466 11.0733 3.78469 11.3282 3.57734C11.9785 3.04837 12.5941 2.68844 13.1079 2.52187C13.3647 2.43859 13.5895 2.40246 13.7852 2.40781ZM6.19458 2.41015C6.39142 2.40466 6.61665 2.44069 6.87427 2.52422C7.38951 2.69126 8.00623 3.05104 8.65708 3.58047C8.90686 3.78365 9.16217 4.01906 9.41958 4.26953C8.91896 4.81099 8.42199 5.42165 7.93911 6.09218C6.9876 6.17963 6.09469 6.32654 5.28052 6.52422C5.20598 6.21821 5.13987 5.91943 5.09458 5.6375C4.96151 4.80913 4.95819 4.09536 5.07114 3.56562C5.1841 3.03589 5.39694 2.71252 5.6852 2.54609C5.82934 2.46288 5.99774 2.41565 6.19458 2.41015ZM9.99067 4.85703C10.3165 5.21163 10.6424 5.59966 10.9657 6.01718C10.6481 6.00394 10.3266 5.99609 10 5.99609C9.66703 5.99609 9.33941 6.0042 9.01567 6.01797C9.33899 5.60012 9.66475 5.21189 9.99067 4.85703ZM10 6.8039C10.544 6.8039 11.0742 6.82626 11.5899 6.86406C11.9447 7.37372 12.2915 7.91442 12.6219 8.48672C12.9123 8.98958 13.175 9.49166 13.4141 9.9875C13.1725 10.4899 12.9053 10.9988 12.611 11.5086C12.3519 11.9574 12.0813 12.3836 11.8063 12.7945C11.2238 12.8432 10.6202 12.8703 10 12.8703C9.365 12.8703 8.74783 12.8416 8.15239 12.7906C7.88195 12.3856 7.61594 11.9658 7.36099 11.5242C7.06732 11.0156 6.80148 10.5076 6.5602 10.0062C6.80249 9.50203 7.06953 8.99127 7.36489 8.47968C7.69358 7.91039 8.03933 7.37282 8.39224 6.86562C8.91349 6.82697 9.44983 6.8039 10 6.8039ZM12.6196 6.96406C13.279 7.04633 13.8981 7.16056 14.4743 7.29765C14.3033 7.85811 14.0927 8.44352 13.8375 9.04765C13.6719 8.72828 13.5003 8.40783 13.3149 8.08672C13.0902 7.69757 12.8562 7.32656 12.6196 6.96406ZM7.33755 6.97031C7.10591 7.32604 6.87798 7.68983 6.65786 8.07109C6.47009 8.39633 6.29494 8.72109 6.12739 9.04453C5.87443 8.44403 5.66511 7.86195 5.49536 7.30468C6.06725 7.16734 6.68276 7.05352 7.33755 6.97031ZM15.2657 7.51015C15.5492 7.59595 15.8231 7.68548 16.0743 7.78359C16.8383 8.08202 17.4427 8.43539 17.8344 8.79687C18.2261 9.15835 18.3961 9.50308 18.3961 9.8375C18.3961 10.1719 18.2261 10.5166 17.8344 10.8781C17.4427 11.2396 16.8383 11.593 16.0743 11.8914C15.7951 12.0004 15.4884 12.0993 15.1696 12.193C14.9421 11.4895 14.6518 10.7555 14.3063 10.0062C14.7036 9.14603 15.0245 8.30731 15.2657 7.51015ZM4.72114 7.51406C4.95957 8.30326 5.27637 9.13364 5.66802 9.98515C5.32024 10.7388 5.02848 11.4769 4.80005 12.1844C4.49243 12.0932 4.19613 11.997 3.92583 11.8914C3.16177 11.593 2.55739 11.2396 2.16567 10.8781C1.77396 10.5166 1.60396 10.1719 1.60396 9.8375C1.60396 9.50308 1.77396 9.15835 2.16567 8.79687C2.55739 8.43539 3.16177 8.08202 3.92583 7.78359C4.17316 7.68699 4.44241 7.59873 4.72114 7.51406ZM10 8C8.90022 8 8.00005 8.90017 8.00005 10C8.00005 11.0998 8.90022 12 10 12C11.0999 12 12 11.0998 12 10C12 8.90017 11.0999 8 10 8ZM6.13677 10.9461C6.30505 11.2711 6.48006 11.5973 6.6688 11.9242C6.81647 12.18 6.96728 12.429 7.12036 12.6734C6.58318 12.5989 6.07254 12.5046 5.59302 12.393C5.74551 11.9259 5.92795 11.4411 6.13677 10.9461ZM13.8477 10.9461C14.0574 11.4423 14.2399 11.9279 14.393 12.3961C13.912 12.5076 13.3998 12.6016 12.861 12.6758C13.0161 12.4283 13.1692 12.1762 13.3188 11.9172C13.5062 11.5927 13.6805 11.2688 13.8477 10.9461ZM5.36255 13.1695C6.08648 13.341 6.87114 13.4728 7.70317 13.5586C8.2586 14.3619 8.83724 15.0838 9.41958 15.7148C9.15917 15.9687 8.90108 16.207 8.64849 16.4125C7.9982 16.9415 7.38178 17.3006 6.86802 17.4672C6.35426 17.6337 5.97083 17.6118 5.6852 17.4469C5.39958 17.282 5.18924 16.961 5.07661 16.4328C4.96398 15.9046 4.96709 15.1917 5.10005 14.3641C5.16037 13.9886 5.25051 13.5865 5.36255 13.1695ZM14.6243 13.1727C14.7372 13.5922 14.8277 13.9957 14.8883 14.3734C15.0214 15.2018 15.0247 15.9156 14.9118 16.4453C14.7988 16.975 14.5875 17.2992 14.2993 17.4656C14.011 17.632 13.6239 17.6538 13.1086 17.4867C12.5934 17.3197 11.9767 16.9599 11.3258 16.4305C11.0714 16.2235 10.8115 15.9833 10.5493 15.7273C11.1355 15.0938 11.7182 14.3683 12.2774 13.5602C13.1115 13.4749 13.8984 13.3439 14.6243 13.1727ZM8.74692 13.6406C9.15763 13.663 9.57375 13.6781 10 13.6781C10.4123 13.6781 10.8149 13.6639 11.2125 13.643C10.806 14.1914 10.3917 14.6901 9.97896 15.1391C9.5665 14.6891 9.15291 14.1896 8.74692 13.6406Z" fill="black"/>
</svg>
