<svg width="20" height="20" viewBox="0 0 20 20" fill="none" xmlns="http://www.w3.org/2000/svg">
<path d="M17.4563 0.400792C16.8709 0.384561 16.2447 0.707354 15.6234 1.2586C15.4758 1.3898 15.3284 1.53544 15.182 1.69064C13.482 3.49424 11.9037 6.83475 11.4133 9.38595C11.6041 9.77315 11.7539 10.2677 11.8523 10.6453C11.8775 10.7421 11.9 10.8326 11.918 10.9102C11.9612 11.0934 11.9844 11.2117 11.9844 11.2117C11.9844 11.2117 11.9694 11.1543 11.907 10.9727C11.895 10.9379 11.8812 10.9003 11.8656 10.8555C11.8588 10.8371 11.8502 10.8146 11.8398 10.7906C11.729 10.5326 11.4219 9.98837 11.2867 9.75157C11.1711 10.0924 11.0696 10.4108 10.9844 10.6992C11.374 11.4124 11.6109 12.6344 11.6109 12.6344C11.6109 12.6344 11.591 12.5553 11.493 12.2789C11.4062 12.0345 10.9731 11.2753 10.8703 11.0977C10.6947 11.7457 10.6247 12.1835 10.6875 12.2899C10.8095 12.4963 10.9261 12.8517 11.0281 13.2453C11.0637 13.3817 11.0969 13.5225 11.1289 13.6633C11.0229 14.5941 10.998 15.5291 11.0492 16.4547C11.1024 17.4579 11.2428 18.4482 11.4016 19.425C11.4184 19.5278 11.5128 19.6022 11.618 19.5922C11.728 19.5818 11.8088 19.4842 11.7984 19.3742C11.7484 18.8418 11.7061 18.3109 11.6789 17.7813L11.7031 18.0188C11.6651 17.5432 11.6546 17.0311 11.675 16.4859C11.7474 14.5523 12.1928 12.2203 13.0148 9.78985C14.404 6.12105 16.3309 3.1767 18.0945 1.7711C16.4869 3.2231 14.3114 7.92289 13.6602 9.66329C12.931 11.6121 12.4139 13.4406 12.1023 15.193C12.6399 13.5502 14.3773 12.8445 14.3773 12.8445C14.3773 12.8445 15.2302 11.793 16.2258 10.2914C15.6294 10.4274 14.6491 10.6604 14.3211 10.7984C13.8371 11.0016 13.707 11.0711 13.707 11.0711C13.707 11.0711 15.2747 10.116 16.6195 9.6836C18.4695 6.77 20.4851 2.63072 18.4555 0.820323C18.1436 0.542223 17.8075 0.41053 17.4563 0.400792ZM3.6 1.20001C2.716 1.20001 2 1.91601 2 2.80001V16C2 16.884 2.716 17.6 3.6 17.6H10.3398C10.2998 17.24 10.2723 16.8681 10.2523 16.4961C10.2003 15.5681 10.2203 14.6277 10.3203 13.7117C10.2963 13.6197 10.2763 13.5317 10.2523 13.4477C10.1163 12.9197 10.024 12.7401 10 12.6961C9.82 12.3961 9.78809 12.0323 10.0961 10.8883C10.3605 9.98229 11.5146 4.46521 14.5437 1.20001H3.6Z" fill="black"/>
</svg>
