<svg width="20" height="20" viewBox="0 0 20 20" fill="none" xmlns="http://www.w3.org/2000/svg">
<path d="M17.3343 1.59998H2.66716C2.0781 1.59998 1.59998 2.0781 1.59998 2.66716V17.3328C1.59998 17.9219 2.0781 18.4 2.66716 18.4H17.3328C17.9219 18.4 18.4 17.9219 18.4 17.3343V2.66716C18.4 2.0781 17.9219 1.59998 17.3343 1.59998ZM10.8 14.4734C10.8 16.0718 9.86248 16.8 8.49373 16.8C7.25623 16.8 6.36404 15.9703 5.99998 15.2L7.25779 14.439C7.49998 14.8687 7.86873 15.2 8.39998 15.2C8.90779 15.2 9.19998 15.0015 9.19998 14.2297V9.19998H10.8V14.4734ZM14.2703 16.8C12.8531 16.8 12.0484 16.0859 11.6 15.2L12.8 14.4C13.1265 14.9344 13.4828 15.4453 14.2359 15.4453C14.8687 15.4453 15.2 15.1297 15.2 14.6922C15.2 14.1703 14.8562 13.9844 14.1609 13.6797L13.7797 13.5156C12.6781 13.0469 11.9453 12.4593 11.9453 11.2156C11.9453 10.0718 12.8187 9.19998 14.1812 9.19998C15.1515 9.19998 15.8484 9.53748 16.3515 10.4219L15.164 11.1859C14.9015 10.7156 14.6203 10.5312 14.1812 10.5312C13.7344 10.5312 13.4515 10.8156 13.4515 11.1859C13.4515 11.6437 13.7344 11.8281 14.389 12.1125L14.7703 12.2765C16.0687 12.8312 16.8 13.3984 16.8 14.6734C16.8 16.0469 15.7203 16.8 14.2703 16.8Z" fill="black"/>
</svg>
