<svg width="20" height="20" viewBox="0 0 20 20" fill="none" xmlns="http://www.w3.org/2000/svg">
<g clip-path="url(#clip0_13_653)">
<path d="M9.80005 0.799988C6.32036 0.799988 5.60005 2.59686 5.60005 3.63749V5.59999H9.60005V5.99999H3.63755C2.31724 5.99999 0.800049 7.04061 0.800049 9.99999C0.800049 12.9594 2.31724 14 3.63755 14H6.00005V11.6C6.00005 10.7203 6.72036 9.99999 7.60005 9.99999H12.4C13.0797 9.99999 13.6 9.47968 13.6 8.79999V3.63749C13.6 2.23749 12.2797 0.799988 9.80005 0.799988ZM8.00005 2.79999C8.44067 2.79999 8.80005 3.15936 8.80005 3.59999C8.80005 4.04061 8.44067 4.39999 8.00005 4.39999C7.55942 4.39999 7.20005 4.04061 7.20005 3.59999C7.20005 3.15936 7.55942 2.79999 8.00005 2.79999ZM14 5.99999V8.79999C14 9.67968 13.2797 10.4 12.4 10.4H7.60005C6.92036 10.4 6.40005 10.9203 6.40005 11.6V16.3625C6.40005 17.7625 7.72036 19.2 10.2 19.2C13.6797 19.2 14.4 17.4031 14.4 16.3625V14.4H10.4V14H16.3625C17.6829 14 19.2 12.9594 19.2 9.99999C19.2 7.04061 17.6829 5.99999 16.3625 5.99999H14ZM12 15.6C12.4407 15.6 12.8 15.9594 12.8 16.4C12.8 16.8406 12.4407 17.2 12 17.2C11.5594 17.2 11.2 16.8406 11.2 16.4C11.2 15.9594 11.5594 15.6 12 15.6Z" fill="black"/>
</g>
<defs>
<clipPath id="clip0_13_653">
<rect width="20" height="20" fill="white"/>
</clipPath>
</defs>
</svg>
