<svg width="20" height="20" viewBox="0 0 20 20" fill="none" xmlns="http://www.w3.org/2000/svg">
<path d="M18.4208 6.29415C18.2341 6.66748 17.985 6.89665 17.6591 6.99248C17.1475 7.14498 16.54 6.94915 16.255 6.78165C15.8791 6.56081 15.4433 6.22581 14.9825 5.87165C13.5116 4.73998 11.6816 3.33331 9.16664 3.33331C7.15497 3.33331 6.12164 4.36581 4.41081 6.07748L5.58331 7.26165C6.03831 6.90748 8.94247 7.24915 10.21 8.25665C12.0925 9.75248 13.4516 10.8333 15 10.8333C17.2158 10.8333 19.0658 9.38248 19.95 6.95165L18.4208 6.29415ZM13.4933 12.8258C12.9825 12.9758 12.3741 12.7825 12.0891 12.615C11.7133 12.3941 11.2775 12.0591 10.8166 11.705C9.34497 10.5733 7.51497 9.16665 4.99997 9.16665C2.98831 9.16665 1.95497 10.1991 0.244141 11.9108L1.41664 13.095C1.87081 12.7391 4.77664 13.0833 6.04331 14.09C7.92581 15.5858 9.28497 16.6666 10.8333 16.6666C13.0491 16.6666 14.8991 15.2158 15.7833 12.785L14.255 12.1275C14.0675 12.5008 13.8191 12.7291 13.4933 12.8258Z" fill="black"/>
</svg>
